<svg xmlns="http://www.w3.org/2000/svg">

  <symbol id="users" viewBox="0 0 25 25">
    <g>
      <path fill-rule="evenodd" clip-rule="evenodd" d="M12.5 11.3493C13.4548 11.3493 14.3705 10.97 15.0456 10.2949C15.7207 9.61975 16.1 8.70407 16.1 7.74929C16.1 6.79451 15.7207 5.87884 15.0456 5.20371C14.3705 4.52858 13.4548 4.14929 12.5 4.14929C11.5452 4.14929 10.6296 4.52858 9.95442 5.20371C9.27929 5.87884 8.90001 6.79451 8.90001 7.74929C8.90001 8.70407 9.27929 9.61975 9.95442 10.2949C10.6296 10.97 11.5452 11.3493 12.5 11.3493ZM7.39866 22.1493C5.57686 22.1493 4.04225 20.6179 4.73942 18.9347C5.16156 17.9156 5.7803 16.9896 6.56031 16.2096C7.34032 15.4296 8.26633 14.8108 9.28547 14.3887C10.3046 13.9666 11.3969 13.7493 12.5 13.7493C13.6031 13.7493 14.6954 13.9666 15.7145 14.3887C16.7337 14.8108 17.6597 15.4296 18.4397 16.2096C19.2197 16.9896 19.8385 17.9156 20.2606 18.9347C20.9578 20.6179 19.4232 22.1493 17.6014 22.1493H7.39866Z" fill="#F53838"/>
    </g>
  </symbol>

  <symbol id="locations" viewBox="0 0 24 25">
    <g>
      <path d="M19 9.54932C19 8.63006 18.8189 7.71981 18.4672 6.87053C18.1154 6.02125 17.5998 5.24958 16.9497 4.59957C16.2997 3.94956 15.5281 3.43394 14.6788 3.08216C13.8295 2.73038 12.9193 2.54932 12 2.54932C11.0807 2.54932 10.1705 2.73038 9.32122 3.08216C8.47194 3.43394 7.70026 3.94956 7.05025 4.59957C6.40024 5.24958 5.88463 6.02125 5.53284 6.87053C5.18106 7.71981 5 8.63006 5 9.54932C5 10.9363 5.41 12.2263 6.105 13.3143H6.097C8.457 17.0093 12 22.5493 12 22.5493L17.903 13.3143H17.896C18.6164 12.1907 18.9995 10.8841 19 9.54932ZM12 12.5493C11.2044 12.5493 10.4413 12.2332 9.87868 11.6706C9.31607 11.108 9 10.345 9 9.54932C9 8.75367 9.31607 7.99061 9.87868 7.428C10.4413 6.86539 11.2044 6.54932 12 6.54932C12.7956 6.54932 13.5587 6.86539 14.1213 7.428C14.6839 7.99061 15 8.75367 15 9.54932C15 10.345 14.6839 11.108 14.1213 11.6706C13.5587 12.2332 12.7956 12.5493 12 12.5493Z" fill="#F53838"/>
    </g>
  </symbol>

  <symbol id="servers" viewBox="0 0 25 25">
    <g>
      <path d="M20.5 3.54932H4.5C3.96957 3.54932 3.46086 3.76003 3.08579 4.1351C2.71071 4.51018 2.5 5.01888 2.5 5.54932V9.54932C2.5 10.0797 2.71071 10.5885 3.08579 10.9635C3.46086 11.3386 3.96957 11.5493 4.5 11.5493H20.5C21.0304 11.5493 21.5391 11.3386 21.9142 10.9635C22.2893 10.5885 22.5 10.0797 22.5 9.54932V5.54932C22.5 5.01888 22.2893 4.51018 21.9142 4.1351C21.5391 3.76003 21.0304 3.54932 20.5 3.54932ZM15.5 7.54932C15.5 8.1016 15.0523 8.54932 14.5 8.54932C13.9477 8.54932 13.5 8.1016 13.5 7.54932C13.5 6.99703 13.9477 6.54932 14.5 6.54932C15.0523 6.54932 15.5 6.99703 15.5 7.54932ZM19.5 7.54932C19.5 8.1016 19.0523 8.54932 18.5 8.54932C17.9477 8.54932 17.5 8.1016 17.5 7.54932C17.5 6.99703 17.9477 6.54932 18.5 6.54932C19.0523 6.54932 19.5 6.99703 19.5 7.54932ZM20.5 13.5493H4.5C3.96957 13.5493 3.46086 13.76 3.08579 14.1351C2.71071 14.5102 2.5 15.0189 2.5 15.5493V19.5493C2.5 20.0798 2.71071 20.5885 3.08579 20.9635C3.46086 21.3386 3.96957 21.5493 4.5 21.5493H20.5C21.0304 21.5493 21.5391 21.3386 21.9142 20.9635C22.2893 20.5885 22.5 20.0798 22.5 19.5493V15.5493C22.5 15.0189 22.2893 14.5102 21.9142 14.1351C21.5391 13.76 21.0304 13.5493 20.5 13.5493ZM15.5 17.5493C15.5 18.1016 15.0523 18.5493 14.5 18.5493C13.9477 18.5493 13.5 18.1016 13.5 17.5493C13.5 16.997 13.9477 16.5493 14.5 16.5493C15.0523 16.5493 15.5 16.997 15.5 17.5493ZM19.5 17.5493C19.5 18.1016 19.0523 18.5493 18.5 18.5493C17.9477 18.5493 17.5 18.1016 17.5 17.5493C17.5 16.997 17.9477 16.5493 18.5 16.5493C19.0523 16.5493 19.5 16.997 19.5 17.5493Z" fill="#F53838"/>
    </g>
  </symbol>

  <symbol id="confirmed" viewBox="0 0 25 25">
    <g>
      <path d="M12.1215 2.54932C6.60746 2.54932 2.12146 7.03532 2.12146 12.5493C2.12146 18.0633 6.60746 22.5493 12.1215 22.5493C17.6355 22.5493 22.1215 18.0633 22.1215 12.5493C22.1215 7.03532 17.6355 2.54932 12.1215 2.54932ZM10.1225 16.9623L7.11691 13.9632C6.72616 13.5733 6.72537 12.9405 7.11515 12.5496C7.50517 12.1585 8.13847 12.1578 8.52939 12.548L10.1205 14.1363L14.7075 9.54932C15.0979 9.15885 15.731 9.15885 16.1215 9.54932C16.5119 9.93978 16.5119 10.5729 16.1215 10.9633L10.1225 16.9623Z" fill="#2FAB73"/>
    </g>
  </symbol>

  <symbol id="facebook" viewBox="0 0 34 35">
    <g>
      <path d="M16.8 0.580566C7.5215 0.580566 0 8.10207 0 17.3806C0 26.6591 7.5215 34.1806 16.8 34.1806C26.0785 34.1806 33.6 26.6591 33.6 17.3806C33.6 8.10207 26.0785 0.580566 16.8 0.580566ZM20.7795 12.1901H18.2543C17.955 12.1901 17.6225 12.5838 17.6225 13.1071V14.9306H20.7813L20.3035 17.5311H17.6225V25.3378H14.6423V17.5311H11.9385V14.9306H14.6423V13.4011C14.6423 11.2066 16.1648 9.42332 18.2543 9.42332H20.7795V12.1901Z" fill="white"/>
    </g>
  </symbol>
  
  <symbol id="twitter" viewBox="0 0 35 35">
    <g>
      <path d="M17.4 0.580566C8.12148 0.580566 0.599976 8.10207 0.599976 17.3806C0.599976 26.6591 8.12148 34.1806 17.4 34.1806C26.6785 34.1806 34.2 26.6591 34.2 17.3806C34.2 8.10207 26.6785 0.580566 17.4 0.580566ZM24.2337 14.3426C24.2407 14.4861 24.2425 14.6296 24.2425 14.7696C24.2425 19.1446 20.9157 24.1863 14.8292 24.1863C13.0307 24.1893 11.2697 23.6728 9.75773 22.6988C10.015 22.7303 10.2792 22.7426 10.547 22.7426C12.0975 22.7426 13.5237 22.2158 14.656 21.3268C13.966 21.3133 13.2974 21.0848 12.7434 20.6732C12.1894 20.2617 11.7777 19.6875 11.5655 19.0308C12.061 19.125 12.5715 19.1053 13.0582 18.9731C12.3093 18.8216 11.6358 18.4158 11.152 17.8245C10.6681 17.2331 10.4037 16.4926 10.4035 15.7286V15.6883C10.8497 15.9351 11.3607 16.0856 11.9032 16.1031C11.2011 15.6357 10.7041 14.9177 10.5138 14.0961C10.3235 13.2744 10.4543 12.411 10.8795 11.6826C11.7106 12.7046 12.7472 13.5406 13.922 14.1366C15.0968 14.7326 16.3836 15.0752 17.6992 15.1423C17.532 14.4324 17.604 13.687 17.904 13.0222C18.204 12.3574 18.7153 11.8103 19.3584 11.466C20.0014 11.1218 20.7402 10.9996 21.4598 11.1185C22.1794 11.2374 22.8396 11.5907 23.3377 12.1236C24.0783 11.9771 24.7884 11.7054 25.4377 11.3203C25.1909 12.0871 24.6742 12.7381 23.9835 13.1526C24.6395 13.0736 25.28 12.8972 25.884 12.6293C25.4403 13.2941 24.8815 13.8743 24.2337 14.3426Z" fill="white"/>
    </g>
  </symbol>

  <symbol id="instagram" viewBox="0 0 34 35">
    <g>
      <path d="M22.25 17.3806C22.25 18.773 21.6968 20.1083 20.7123 21.0929C19.7277 22.0774 18.3923 22.6306 17 22.6306C15.6076 22.6306 14.2722 22.0774 13.2876 21.0929C12.3031 20.1083 11.75 18.773 11.75 17.3806C11.75 17.0813 11.7815 16.7891 11.8357 16.5056H9.99995V23.5003C9.99995 23.9868 10.3937 24.3806 10.8802 24.3806H23.1215C23.3546 24.3801 23.5781 24.2872 23.7428 24.1221C23.9075 23.9571 24 23.7335 24 23.5003V16.5056H22.1642C22.2185 16.7891 22.25 17.0813 22.25 17.3806ZM17 20.8806C17.4597 20.8805 17.9149 20.7898 18.3396 20.6137C18.7643 20.4377 19.1502 20.1797 19.4752 19.8546C19.8002 19.5294 20.058 19.1434 20.2338 18.7186C20.4096 18.2938 20.5001 17.8386 20.5 17.3788C20.4998 16.9191 20.4092 16.4639 20.2331 16.0392C20.0571 15.6145 19.7991 15.2286 19.474 14.9036C19.1488 14.5786 18.7628 14.3208 18.338 14.145C17.9132 13.9691 17.4579 13.8787 16.9982 13.8788C16.0697 13.8791 15.1793 14.2481 14.523 14.9048C13.8666 15.5615 13.498 16.4521 13.4982 17.3806C13.4984 18.3091 13.8675 19.1994 14.5242 19.8558C15.1809 20.5122 16.0715 20.8808 17 20.8806ZM21.2 13.7056H23.2982C23.4376 13.7056 23.5713 13.6503 23.6701 13.5519C23.7688 13.4535 23.8245 13.32 23.825 13.1806V11.0823C23.825 10.9426 23.7695 10.8086 23.6707 10.7098C23.5719 10.6111 23.4379 10.5556 23.2982 10.5556H21.2C21.0603 10.5556 20.9263 10.6111 20.8275 10.7098C20.7287 10.8086 20.6732 10.9426 20.6732 11.0823V13.1806C20.675 13.4693 20.9112 13.7056 21.2 13.7056ZM17 0.580566C12.5443 0.580566 8.27117 2.35056 5.12056 5.50117C1.96995 8.65178 0.199951 12.9249 0.199951 17.3806C0.199951 21.8362 1.96995 26.1094 5.12056 29.26C8.27117 32.4106 12.5443 34.1806 17 34.1806C19.2062 34.1806 21.3908 33.746 23.429 32.9017C25.4673 32.0575 27.3193 30.82 28.8794 29.26C30.4394 27.6999 31.6769 25.8479 32.5211 23.8097C33.3654 21.7714 33.8 19.5868 33.8 17.3806C33.8 15.1744 33.3654 12.9898 32.5211 10.9515C31.6769 8.91322 30.4394 7.0612 28.8794 5.50117C27.3193 3.94115 25.4673 2.70367 23.429 1.85939C21.3908 1.01511 19.2062 0.580566 17 0.580566ZM25.75 24.1863C25.75 25.2556 24.875 26.1306 23.8057 26.1306H10.1942C9.12495 26.1306 8.24995 25.2556 8.24995 24.1863V10.5748C8.24995 9.50557 9.12495 8.63057 10.1942 8.63057H23.8057C24.875 8.63057 25.75 9.50557 25.75 10.5748V24.1863Z" fill="white"/>
    </g>
  </symbol>
  
</svg>

